<?xml version="1.0" encoding="UTF-8" standalone="no"?>
<!-- Created with Inkscape (http://www.inkscape.org/) -->

<svg
        width="16"
        height="16"
        viewBox="0 0 16 16"
        version="1.1"
        id="svg5"
        sodipodi:docname="favicon2.svg"
        inkscape:export-filename="favicon.png"
        inkscape:export-xdpi="96"
        inkscape:export-ydpi="96"
        inkscape:version="1.2.1 (9c6d41e410, 2022-07-14)"
        xmlns:inkscape="http://www.inkscape.org/namespaces/inkscape"
        xmlns:sodipodi="http://sodipodi.sourceforge.net/DTD/sodipodi-0.dtd"
        xmlns="http://www.w3.org/2000/svg"
>
  <sodipodi:namedview
     id="namedview18"
     pagecolor="#ffffff"
     bordercolor="#000000"
     borderopacity="0.25"
     inkscape:showpageshadow="2"
     inkscape:pageopacity="0.0"
     inkscape:pagecheckerboard="0"
     inkscape:deskcolor="#d1d1d1"
     showgrid="false"
     inkscape:zoom="18"
     inkscape:cx="21.527778"
     inkscape:cy="10.722222"
     inkscape:window-width="1920"
     inkscape:window-height="1051"
     inkscape:window-x="-9"
     inkscape:window-y="-9"
     inkscape:window-maximized="1"
     inkscape:current-layer="layer1" />
  <defs
     id="defs2">
    <rect
       x="2.9855621"
       y="25.29871"
       width="42.583542"
       height="16.027754"
       id="rect10962" />
  </defs>
  <g
     id="layer1"
     transform="matrix(0.31789204,0,0,0.33030848,0.20483404,0.49493155)">
    <rect
       style="fill:#ffffff"
       id="rect3140"
       width="15.944445"
       height="15.999999"
       x="0"
       y="0.055555556"
       rx="0"
       transform="matrix(3.1457221,0,0,3.027473,-0.64435096,-1.4983919)" />
    <rect
       style="fill:none;stroke:#008000"
       id="rect1572"
       width="31.819807"
       height="28.83424"
       x="7.7781744"
       y="14.299271"
       ry="0.39283693"
       rx="1.7284832" />
    <rect
       style="fill:none;stroke:#008000"
       id="rect1792"
       width="8.5638485"
       height="9.4280901"
       x="10.449467"
       y="22.077446"
       rx="1.7284832"
       ry="3.3783989" />
    <rect
       style="fill:none;stroke:#008000"
       id="rect2524"
       width="10.213764"
       height="19.79899"
       x="23.020254"
       y="21.448906"
       rx="1.7284832"
       ry="0" />
    <path
       style="fill:none;stroke:#008000"
       d="M 10.528034,14.220703 3.8498036,14.456405 23.177388,2.0427529 44.312024,13.906433 l -7.30677,0.07857 z"
       id="path4205" />
    <ellipse
       style="fill:none;stroke:#008000"
       id="path4207"
       cx="25.023724"
       cy="29.973471"
       rx="0.4321208"
       ry="0.66782308" />
    <g
       id="g10893">
      <g
         id="g10906"
         transform="matrix(1.1456861,0,0,1.5757129,60.218448,-29.394605)">
        <path
           style="fill:#ff1f1f;fill-opacity:1;stroke:none"
           d="m -20.11326,33.862558 c 0,0 -10.056629,-9.42809 -8.563848,-11.627978 1.492781,-2.199888 7.621039,-6.206826 8.642416,1.178511 1.021376,7.385338 -0.07857,10.449467 -0.07857,10.449467 z"
           id="path10867" />
        <path
           style="fill:#ff1f1f;fill-opacity:1;stroke:none"
           d="m -20.285883,33.830621 c 0,0 10.056629,-9.428089 8.563848,-11.627977 -1.492781,-2.199888 -7.621039,-6.206826 -8.642416,1.178511 -1.021376,7.385338 0.07857,10.449466 0.07857,10.449466 z"
           id="path10867-7" />
      </g>
      <text
         xml:space="preserve"
         id="text10960"
         style="white-space:pre;shape-inside:url(#rect10962);display:inline;fill:#ff1f1f;fill-opacity:1;stroke:none"
         transform="translate(-2.5141575,-29.462783)"><tspan
           x="2.9863281"
           y="36.246792"
           id="tspan3165"><tspan
             style="font-size:8px;font-family:'Freestyle Script';-inkscape-font-specification:'Freestyle Script'"
             id="tspan3163">SMART</tspan></tspan></text>
    </g>
  </g>
</svg>
